<?xml version="1.0" encoding="UTF-8"?>
<svg width="362px" height="66px" viewBox="0 0 362 66" version="1.1" xmlns="http://www.w3.org/2000/svg" xmlns:xlink="http://www.w3.org/1999/xlink">
    <!-- Generator: Sketch 51.2 (57519) - http://www.bohemiancoding.com/sketch -->
    <title>Artboard 8</title>
    <desc>Created with Sketch.</desc>
    <defs></defs>
    <g id="Artboard-8" stroke="none" stroke-width="1" fill="none" fill-rule="evenodd">
        <path d="M45.8883945,41.5630617 C46.2048836,46.2814445 50.3142781,50.0440373 55.4984946,50.0440373 C59.926033,50.0440373 62.329282,48.0132766 64.0350138,46.2220496 L67.9557559,49.7451087 C65.7428141,52.4327308 61.5059965,55 55.4372653,55 C46.7729093,55 40.0711997,48.7893187 40.0711997,40.3693011 C40.0711997,31.9481112 46.1419995,25.7358669 54.5510956,25.7358669 C62.8344235,25.7358669 68.8419255,32.0669011 68.8419255,40.3693011 C68.8419255,40.6072717 68.8419255,41.0249902 68.7790414,41.5630617 L45.8883945,41.5630617 Z M46.393536,36.7852839 L62.5808185,36.7852839 C61.6963037,33.2028298 58.2811168,30.6933926 54.739748,30.6933926 C50.8839586,30.6933926 47.4054739,33.1418718 46.393536,36.7852839 Z M77.6473571,41.5630617 C77.9655011,46.2814445 82.0748955,50.0440373 87.259112,50.0440373 C91.6849956,50.0440373 94.0882446,48.0132766 95.7960449,46.2220496 L99.7147185,49.7451087 C97.5034315,52.4327308 93.266614,55 87.1962279,55 C78.5335267,55 71.8301623,48.7893187 71.8301623,40.3693011 C71.8301623,31.9481112 77.9009621,25.7358669 86.3100582,25.7358669 C94.595041,25.7358669 100.600888,32.0669011 100.600888,40.3693011 C100.600888,40.6072717 100.600888,41.0249902 100.538004,41.5630617 L77.6473571,41.5630617 Z M78.1541534,36.7852839 L94.3397811,36.7852839 C93.4552663,33.2028298 90.0417343,30.6933926 86.5003654,30.6933926 C82.644576,30.6933926 79.1644365,33.1418718 78.1541534,36.7852839 Z M104.060342,54.4025336 L104.060342,12 L110.067844,12 L110.067844,54.4025336 L104.060342,54.4025336 Z M112.787582,26.3333333 L118.985805,26.3333333 L127.774275,45.4460075 L136.562744,26.3333333 L142.759312,26.3333333 L129.859793,54.4040966 L125.687515,54.4040966 L112.787582,26.3333333 Z M165.855573,51.8352644 C163.452324,53.8656343 160.2291,55 156.687731,55 C154.032531,55 151.249909,54.2833529 149.226033,53.149378 C144.737266,50.6399408 141.638154,45.9825159 141.638154,40.3693011 C141.638154,34.756477 144.801805,30.0365312 149.290572,27.528657 C151.312793,26.3927283 153.77934,25.7358669 156.561962,25.7358669 C159.91261,25.7358669 163.13749,26.6916569 165.855573,28.9021655 L165.855573,26.3333333 L171.674423,26.3333333 L171.674423,54.4040966 L165.855573,54.4040966 L165.855573,51.8352644 Z M165.666507,35.1144098 C163.831284,32.8429432 160.797125,31.1111111 157.192872,31.1111111 C151.438562,31.1111111 147.645656,35.4711704 147.645656,40.3693011 C147.645656,45.3850495 151.756706,49.6247558 157.511016,49.6247558 C160.545175,49.6247558 163.644286,48.1914615 165.666507,45.6241924 L165.666507,35.1144098 Z M192.304138,31.3506447 C191.608689,31.1705061 190.912826,31.1111111 189.963773,31.1111111 C186.86673,31.1111111 183.578966,33.1418718 181.93405,35.831057 L181.93405,54.4040966 L175.926548,54.4040966 L175.926548,26.3333333 L181.743329,26.3333333 L181.743329,29.5594177 C183.197938,27.6474469 186.296636,25.7358669 190.66129,25.7358669 C191.2922,25.7358669 192.304138,25.7968249 193,25.9156148 L192.304138,31.3506447 Z M41.426518,26.3829594 L27.5167162,40.3564061 L41.426518,54.3251638 L33.855601,54.3251638 L19.9441444,40.3564061 L33.855601,26.3829594 L41.426518,26.3829594 Z M13,54.4025336 L13,12 L19.007502,12 L19.007502,54.4025336 L13,54.4025336 Z" id="Combined-Shape-Copy" fill="#FFFFFF"></path>
    </g>
</svg>